v 0.000000 0.000000 -0.500000
v -0.000000 -0.353553 -0.353553
v -0.000000 -0.500000 0.000000
v -0.000000 -0.353553 0.353553
v 0.000000 0.000000 0.500000
v 0.000000 0.353553 0.353553
v 0.000000 0.500000 -0.000000
v 0.000000 0.353553 -0.353553
v 0.900000 -0.000000 0.000000
vt 0.250000 0.490000
vt 0.250000 0.250000
vt 0.419706 0.419706
vt 0.490000 0.250000
vt 0.419706 0.080294
vt 0.250000 0.010000
vt 0.080294 0.080294
vt 0.010000 0.250000
vt 0.750000 0.490000
vt 0.919706 0.419706
vt 0.990000 0.250000
vt 0.919706 0.080294
vt 0.750000 0.010000
vt 0.580294 0.080294
vt 0.510000 0.250000
vt 0.580294 0.419706
vt 0.080294 0.419706
vn 0.4566 -0.3405 -0.8219
vn 0.4566 -0.8219 -0.3405
vn 0.4566 -0.8219 0.3405
vn 0.4566 -0.3405 0.8219
vn 0.4566 0.3405 0.8219
vn 0.4566 0.8219 0.3405
vn -1.0000 0.0000 0.0000
vn 0.4566 0.8219 -0.3405
vn 0.4566 0.3405 -0.8219
f 1/1/1 9/2/1 2/3/1
f 2/3/2 9/2/2 3/4/2
f 3/4/3 9/2/3 4/5/3
f 4/5/4 9/2/4 5/6/4
f 5/6/5 9/2/5 6/7/5
f 6/7/6 9/2/6 7/8/6
f 1/9/7 2/10/7 3/11/7 4/12/7 5/13/7 6/14/7 7/15/7 8/16/7
f 7/8/8 9/2/8 8/17/8
f 8/17/9 9/2/9 1/1/9
v -0.900000 0.000000 -0.200000
v 0.000000 -0.000000 -0.200000
v -0.900000 -0.141421 -0.141421
v 0.000000 -0.141421 -0.141421
v -0.900000 -0.200000 0.000000
v 0.000000 -0.200000 0.000000
v -0.900000 -0.141421 0.141421
v 0.000000 -0.141421 0.141421
v -0.900000 0.000000 0.200000
v 0.000000 -0.000000 0.200000
v -0.900000 0.141421 0.141421
v 0.000000 0.141421 0.141421
v -0.900000 0.200000 -0.000000
v 0.000000 0.200000 -0.000000
v -0.900000 0.141421 -0.141421
v 0.000000 0.141421 -0.141421
vt 1.000000 0.500000
vt 1.000000 1.000000
vt 0.875000 1.000000
vt 0.875000 0.500000
vt 0.750000 1.000000
vt 0.750000 0.500000
vt 0.625000 1.000000
vt 0.625000 0.500000
vt 0.500000 1.000000
vt 0.500000 0.500000
vt 0.375000 1.000000
vt 0.375000 0.500000
vt 0.250000 1.000000
vt 0.250000 0.500000
vt 0.419706 0.419706
vt 0.250000 0.490000
vt 0.080294 0.419706
vt 0.010000 0.250000
vt 0.080294 0.080294
vt 0.250000 0.010000
vt 0.419706 0.080294
vt 0.490000 0.250000
vt 0.125000 1.000000
vt 0.125000 0.500000
vt 0.000000 1.000000
vt 0.000000 0.500000
vt 0.750000 0.490000
vt 0.919706 0.419706
vt 0.990000 0.250000
vt 0.919706 0.080294
vt 0.750000 0.010000
vt 0.580294 0.080294
vt 0.510000 0.250000
vt 0.580294 0.419706
vn -0.0000 -0.3827 -0.9239
vn -0.0000 -0.9239 -0.3827
vn -0.0000 -0.9239 0.3827
vn -0.0000 -0.3827 0.9239
vn 0.0000 0.3827 0.9239
vn 0.0000 0.9239 0.3827
vn 1.0000 0.0000 0.0000
vn 0.0000 0.9239 -0.3827
vn 0.0000 0.3827 -0.9239
vn -1.0000 0.0000 0.0000
f 10/18/10 11/19/10 13/20/10 12/21/10
f 12/21/11 13/20/11 15/22/11 14/23/11
f 14/23/12 15/22/12 17/24/12 16/25/12
f 16/25/13 17/24/13 19/26/13 18/27/13
f 18/27/14 19/26/14 21/28/14 20/29/14
f 20/29/15 21/28/15 23/30/15 22/31/15
f 13/32/16 11/33/16 25/34/16 23/35/16 21/36/16 19/37/16 17/38/16 15/39/16
f 22/31/17 23/30/17 25/40/17 24/41/17
f 24/41/18 25/40/18 11/42/18 10/43/18
f 10/44/19 12/45/19 14/46/19 16/47/19 18/48/19 20/49/19 22/50/19 24/51/19