v 0.000000 0.000000 -0.039065
v 0.000000 0.109907 -0.006911
v 0.014950 0.000000 -0.036092
v 0.002645 0.109907 -0.006385
v 0.027623 0.000000 -0.027623
v 0.004887 0.109907 -0.004887
v 0.036092 0.000000 -0.014950
v 0.006385 0.109907 -0.002645
v 0.039065 0.000000 0.000000
v 0.006911 0.109907 0.000000
v 0.036092 0.000000 0.014950
v 0.006385 0.109907 0.002645
v 0.027623 0.000000 0.027623
v 0.004887 0.109907 0.004887
v 0.014950 0.000000 0.036092
v 0.002645 0.109907 0.006385
v 0.000000 0.000000 0.039065
v 0.000000 0.109907 0.006911
v -0.014950 0.000000 0.036092
v -0.002645 0.109907 0.006385
v -0.027623 0.000000 0.027623
v -0.004887 0.109907 0.004887
v -0.036092 0.000000 0.014950
v -0.006385 0.109907 0.002645
v -0.039065 0.000000 -0.000000
v -0.006911 0.109907 -0.000000
v -0.036092 0.000000 -0.014950
v -0.006385 0.109907 -0.002645
v -0.027623 0.000000 -0.027623
v -0.004887 0.109907 -0.004887
v -0.014950 0.000000 -0.036092
v -0.002645 0.109907 -0.006385
v 0.036430 0.026936 -0.036430
v 0.047598 0.026936 -0.019716
v 0.051520 0.026936 0.000000
v 0.047598 0.026936 0.019716
v 0.036430 0.026936 0.036430
v 0.019716 0.026936 0.047598
v 0.000000 0.026936 0.051520
v -0.019716 0.026936 0.047598
v -0.036430 0.026936 0.036430
v -0.047598 0.026936 0.019716
v -0.051520 0.026936 -0.000000
v -0.047598 0.026936 -0.019716
v -0.036430 0.026936 -0.036430
v 0.000000 0.058593 -0.047165
v 0.018049 0.058593 -0.043575
v 0.033351 0.058593 -0.033351
v 0.043575 0.058593 -0.018049
v 0.047165 0.058593 0.000000
v 0.043575 0.058593 0.018049
v 0.033351 0.058593 0.033351
v 0.018049 0.058593 0.043575
v 0.000000 0.058593 0.047165
v -0.018049 0.058593 0.043575
v -0.033351 0.058593 0.033351
v -0.043575 0.058593 0.018049
v -0.047165 0.058593 -0.000000
v -0.043575 0.058593 -0.018049
v -0.033351 0.058593 -0.033351
v -0.018049 0.058593 -0.043575
v 0.000000 0.094523 -0.034391
v 0.013161 0.094523 -0.031773
v 0.024318 0.094523 -0.024318
v 0.031773 0.094523 -0.013161
v 0.034391 0.094523 0.000000
v 0.031773 0.094523 0.013161
v 0.024318 0.094523 0.024318
v 0.013161 0.094523 0.031773
v 0.000000 0.094523 0.034391
v -0.013161 0.094523 0.031773
v -0.024318 0.094523 0.024318
v -0.031773 0.094523 0.013161
v -0.034391 0.094523 -0.000000
v -0.031773 0.094523 -0.013161
v -0.024318 0.094523 -0.024318
v -0.013161 0.094523 -0.031773
v 0.016015 0.077151 -0.038663
v 0.029591 0.077151 -0.029591
v 0.038663 0.077151 -0.016015
v 0.041848 0.077151 0.000000
v 0.038663 0.077151 0.016015
v 0.029591 0.077151 0.029591
v 0.016015 0.077151 0.038663
v 0.000000 0.077151 0.041848
v -0.016015 0.077151 0.038663
v -0.029591 0.077151 0.029591
v -0.038663 0.077151 0.016015
v -0.041848 0.077151 -0.000000
v -0.038663 0.077151 -0.016015
v -0.029591 0.077151 -0.029591
v -0.016015 0.077151 -0.038663
v 0.000000 0.077151 -0.041848
v 0.000000 0.094523 -0.040846
v 0.013161 0.094523 -0.038228
v 0.024318 0.094523 -0.030774
v -0.024318 0.094523 -0.030774
v -0.013161 0.094523 -0.038228
v 0.016015 0.077151 -0.045118
v 0.029591 0.077151 -0.036047
v -0.029591 0.077151 -0.036047
v -0.016015 0.077151 -0.045118
v 0.000000 0.077151 -0.048304
v 0.017129 0.012316 -0.041353
v 0.031650 0.012316 -0.031650
v 0.041353 0.012316 -0.017129
v 0.044760 0.012316 0.000000
v 0.041353 0.012316 0.017129
v 0.031650 0.012316 0.031650
v 0.017129 0.012316 0.041353
v 0.000000 0.012316 0.044760
v -0.017129 0.012316 0.041353
v -0.031650 0.012316 0.031650
v -0.041353 0.012316 0.017129
v -0.044760 0.012316 -0.000000
v -0.041353 0.012316 -0.017129
v -0.031650 0.012316 -0.031650
v -0.017129 0.012316 -0.041353
v 0.000000 0.012316 -0.044760
v 0.000000 0.026936 -0.057132
v 0.019716 0.026936 -0.053210
v 0.036430 0.026936 -0.042042
v -0.036430 0.026936 -0.042042
v -0.019716 0.026936 -0.053210
v 0.000000 0.058593 -0.052777
v 0.018049 0.058593 -0.049187
v 0.033351 0.058593 -0.038963
v -0.033351 0.058593 -0.038963
v -0.018049 0.058593 -0.049187
v 0.017129 0.012316 -0.046964
v 0.031650 0.012316 -0.037262
v -0.031650 0.012316 -0.037262
v -0.017129 0.012316 -0.046964
v 0.000000 0.012316 -0.050371
v 0.018393 0.052069 -0.050016
v 0.033986 0.052069 -0.039597
v -0.033985 0.052069 -0.039597
v -0.018393 0.052069 -0.050016
v 0.000000 0.052069 -0.053675
v 0.018746 0.045361 -0.050869
v 0.034638 0.045361 -0.040250
v -0.034638 0.045361 -0.040250
v -0.018746 0.045361 -0.050869
v 0.000000 0.045361 -0.054597
v 0.019045 0.039677 -0.051591
v 0.035191 0.039677 -0.040803
v -0.035191 0.039677 -0.040803
v -0.019045 0.039677 -0.051591
v 0.000000 0.039677 -0.055379
v 0.019380 0.033314 -0.052399
v 0.035810 0.033314 -0.041422
v -0.035810 0.033314 -0.041422
v -0.019380 0.033314 -0.052399
v 0.000000 0.033314 -0.056254
v 0.000000 0.045361 -0.049870
v -0.018746 0.045361 -0.046141
v 0.018746 0.045361 -0.046141
v 0.000000 0.052069 -0.048947
v -0.018393 0.052069 -0.045289
v 0.018393 0.052069 -0.045289
v 0.019045 0.039677 -0.046863
v -0.019045 0.039677 -0.046863
v 0.000000 0.039677 -0.050652
v 0.019380 0.033314 -0.047672
v -0.019380 0.033314 -0.047672
v 0.000000 0.033314 -0.051527
vt 1.000000 0.878092
vt 1.000000 1.000000
vt 0.937500 1.000000
vt 0.937500 0.878092
vt 0.875000 1.000000
vt 0.875000 0.878092
vt 0.812500 1.000000
vt 0.812500 0.878092
vt 0.750000 1.000000
vt 0.750000 0.878092
vt 0.687500 1.000000
vt 0.687500 0.878092
vt 0.625000 1.000000
vt 0.625000 0.878092
vt 0.562500 1.000000
vt 0.562500 0.878092
vt 0.500000 1.000000
vt 0.500000 0.878092
vt 0.437500 1.000000
vt 0.437500 0.878092
vt 0.375000 1.000000
vt 0.375000 0.878092
vt 0.312500 1.000000
vt 0.312500 0.878092
vt 0.250000 1.000000
vt 0.250000 0.878092
vt 0.187500 1.000000
vt 0.187500 0.878092
vt 0.125000 1.000000
vt 0.125000 0.878092
vt 0.341844 0.471731
vt 0.250000 0.490000
vt 0.158156 0.471731
vt 0.080294 0.419706
vt 0.028269 0.341844
vt 0.010000 0.250000
vt 0.028269 0.158156
vt 0.080294 0.080294
vt 0.158156 0.028269
vt 0.250000 0.010000
vt 0.341844 0.028269
vt 0.419706 0.080294
vt 0.471731 0.158156
vt 0.490000 0.250000
vt 0.471731 0.341844
vt 0.419706 0.419706
vt 0.062500 1.000000
vt 0.062500 0.878092
vt 0.000000 1.000000
vt 0.000000 0.878092
vt 0.750000 0.490000
vt 0.841844 0.471731
vt 0.919706 0.419706
vt 0.971731 0.341844
vt 0.990000 0.250000
vt 0.971731 0.158156
vt 0.919706 0.080294
vt 0.841844 0.028269
vt 0.750000 0.010000
vt 0.658156 0.028269
vt 0.580294 0.080294
vt 0.528269 0.158156
vt 0.510000 0.250000
vt 0.528269 0.341844
vt 0.580294 0.419706
vt 0.658156 0.471731
vt 0.187500 0.549263
vt 0.187500 0.607746
vt 0.125000 0.607746
vt 0.125000 0.549263
vt 0.250000 0.549263
vt 0.250000 0.607746
vt 0.312500 0.549263
vt 0.312500 0.607746
vt 0.375000 0.549263
vt 0.375000 0.607746
vt 0.437500 0.549263
vt 0.437500 0.607746
vt 0.500000 0.549263
vt 0.500000 0.607746
vt 0.562500 0.549263
vt 0.562500 0.607746
vt 0.625000 0.549263
vt 0.625000 0.607746
vt 0.687500 0.549263
vt 0.687500 0.607746
vt 0.750000 0.549263
vt 0.750000 0.607746
vt 0.812500 0.549263
vt 0.812500 0.607746
vt 0.875000 0.549263
vt 0.875000 0.607746
vt 0.187500 0.734371
vt 0.125000 0.734371
vt 0.250000 0.734371
vt 0.312500 0.734371
vt 0.375000 0.734371
vt 0.437500 0.734371
vt 0.500000 0.734371
vt 0.562500 0.734371
vt 0.625000 0.734371
vt 0.687500 0.734371
vt 0.750000 0.734371
vt 0.812500 0.734371
vt 0.875000 0.734371
vt 0.125000 0.808606
vt 0.062500 0.808606
vt 0.000102 0.808606
vt 0.937500 0.808606
vt 0.875000 0.808606
vt 0.875000 0.808606
vt 0.937500 0.808606
vt 0.999898 0.808606
vt 0.062500 0.808606
vt 0.125000 0.808606
vt 0.875000 0.878092
vt 0.937500 0.878092
vt 1.000000 0.878092
vt 0.062500 0.878092
vt 0.125000 0.878092
vt 0.187500 0.808606
vt 0.250000 0.808606
vt 0.312500 0.808606
vt 0.375000 0.808606
vt 0.437500 0.808606
vt 0.500000 0.808606
vt 0.562500 0.808606
vt 0.625000 0.808606
vt 0.687500 0.808606
vt 0.750000 0.808606
vt 0.812500 0.808606
vt 1.000000 0.734371
vt 0.937500 0.734371
vt 0.062500 0.734371
vt 0.000102 0.808606
vt 0.000000 0.734371
vt 0.000000 0.878092
vt 0.999898 0.808606
vt 1.000000 0.500000
vt 0.999800 0.549263
vt 0.937500 0.549263
vt 0.937500 0.500000
vt 0.875000 0.500000
vt 0.812500 0.500000
vt 0.750000 0.500000
vt 0.687500 0.500000
vt 0.625000 0.500000
vt 0.562500 0.500000
vt 0.500000 0.500000
vt 0.437500 0.500000
vt 0.375000 0.500000
vt 0.312500 0.500000
vt 0.250000 0.500000
vt 0.187500 0.500000
vt 0.125000 0.500000
vt 0.062500 0.549263
vt 0.062500 0.500000
vt 0.000200 0.549263
vt 0.000000 0.500000
vt 0.062500 0.549263
vt 0.062500 0.607746
vt 0.000000 0.607746
vt 0.000200 0.549263
vt 0.125000 0.549263
vt 0.125000 0.607746
vt 0.937500 0.549263
vt 0.937500 0.607746
vt 0.875000 0.607746
vt 0.875000 0.549263
vt 0.999800 0.549263
vt 1.000000 0.607746
vt 0.062500 0.708277
vt 0.062500 0.734371
vt 0.000000 0.734371
vt 0.000469 0.708277
vt 0.124766 0.708277
vt 0.125000 0.734371
vt 0.937500 0.708277
vt 0.937500 0.734371
vt 0.875000 0.734371
vt 0.875234 0.708277
vt 0.999531 0.708277
vt 1.000000 0.734371
vt 0.124704 0.681443
vt 0.124736 0.658707
vt 0.124868 0.633242
vt 0.875132 0.633227
vt 0.875264 0.658707
vt 0.875296 0.681443
vt 0.937493 0.681443
vt 0.062507 0.681443
vt 0.062511 0.658707
vt 0.000578 0.681443
vt 0.000506 0.658707
vt 0.937489 0.658707
vt 0.999494 0.658707
vt 0.999422 0.681443
vt 0.000000 0.000000
vt 0.000000 0.000000
vt 0.937495 0.633227
vt 0.062505 0.633227
vt 0.000253 0.633227
vt 0.999747 0.633227
vt 0.000000 0.000000
vt 0.000000 0.000000
vt 0.000000 0.000000
vt 0.937493 0.681443
vt 0.937489 0.658707
vt 0.000000 0.000000
vt 0.000000 0.000000
vt 0.999494 0.658707
vt 0.000000 0.000000
vt 0.000000 0.000000
vn 0.0967 0.8685 -0.4862
vn 0.2754 0.8685 -0.4122
vn 0.4122 0.8685 -0.2754
vn 0.4862 0.8685 -0.0967
vn 0.4862 0.8685 0.0967
vn 0.4122 0.8685 0.2754
vn 0.2754 0.8685 0.4122
vn 0.0967 0.8685 0.4862
vn -0.0967 0.8685 0.4862
vn -0.2754 0.8685 0.4122
vn -0.4122 0.8685 0.2754
vn -0.4862 0.8685 0.0967
vn -0.4862 0.8685 -0.0967
vn -0.4122 0.8685 -0.2754
vn 0.0000 1.0000 0.0000
vn -0.2754 0.8685 -0.4122
vn -0.0967 0.8685 -0.4862
vn 0.0000 -1.0000 0.0000
vn -0.7572 -0.4130 -0.5060
vn -0.8932 -0.4130 -0.1777
vn -0.8932 -0.4130 0.1777
vn -0.7572 -0.4130 0.5060
vn -0.5060 -0.4130 0.7572
vn -0.1777 -0.4130 0.8932
vn 0.1777 -0.4130 0.8932
vn 0.5060 -0.4130 0.7572
vn 0.7572 -0.4130 0.5060
vn 0.8932 -0.4130 0.1777
vn 0.8932 -0.4130 -0.1777
vn 0.7572 -0.4130 -0.5060
vn -0.8240 0.1337 -0.5506
vn -0.9720 0.1337 -0.1933
vn -0.9720 0.1337 0.1933
vn -0.8240 0.1337 0.5506
vn -0.5506 0.1337 0.8240
vn -0.1933 0.1337 0.9720
vn 0.1933 0.1337 0.9720
vn 0.5506 0.1337 0.8240
vn 0.8240 0.1337 0.5506
vn 0.9720 0.1337 0.1933
vn 0.9720 0.1337 -0.1933
vn 0.8240 0.1337 -0.5506
vn -0.7663 0.3881 -0.5120
vn -0.9039 0.3881 -0.1798
vn -0.9039 0.3881 0.1798
vn -0.7663 0.3881 0.5120
vn -0.5120 0.3881 0.7663
vn -0.1798 0.3881 0.9039
vn 0.1798 0.3881 0.9039
vn 0.5120 0.3881 0.7663
vn 0.7663 0.3881 0.5120
vn 0.9039 0.3881 0.1798
vn 0.9039 0.3881 -0.1798
vn 0.7663 0.3881 -0.5120
vn 0.9569 0.2905 0.0000
vn -0.9569 0.2905 0.0000
vn 0.1878 0.2705 -0.9442
vn 0.5349 0.2705 -0.8005
vn 0.8005 0.2705 -0.5349
vn 0.9442 0.2705 -0.1878
vn 0.9442 0.2705 0.1878
vn 0.8005 0.2705 0.5349
vn 0.5349 0.2705 0.8005
vn 0.1878 0.2705 0.9442
vn -0.1878 0.2705 0.9442
vn -0.5349 0.2705 0.8005
vn -0.8005 0.2705 0.5349
vn -0.9442 0.2705 0.1878
vn -0.9442 0.2705 -0.1878
vn -0.8005 0.2705 -0.5349
vn -0.5349 0.2705 -0.8005
vn -0.1878 0.2705 -0.9442
vn -0.1798 0.3881 -0.9039
vn -0.5120 0.3881 -0.7663
vn 0.5120 0.3881 -0.7663
vn 0.1798 0.3881 -0.9039
vn 0.1777 -0.4130 -0.8932
vn 0.5060 -0.4130 -0.7572
vn -0.5060 -0.4130 -0.7572
vn -0.1777 -0.4130 -0.8932
vn -0.1933 0.1337 -0.9720
vn -0.5506 0.1337 -0.8240
vn 0.5506 0.1337 -0.8240
vn 0.1933 0.1337 -0.9720
vn -0.9993 -0.0367 -0.0000
vn 0.9993 -0.0367 -0.0000
vn 0.9986 -0.0526 0.0000
vn -0.9986 -0.0526 0.0000
f 62/1/1 2/2/1 4/3/1 63/4/1
f 63/4/2 4/3/2 6/5/2 64/6/2
f 64/6/3 6/5/3 8/7/3 65/8/3
f 65/8/4 8/7/4 10/9/4 66/10/4
f 66/10/5 10/9/5 12/11/5 67/12/5
f 67/12/6 12/11/6 14/13/6 68/14/6
f 68/14/7 14/13/7 16/15/7 69/16/7
f 69/16/8 16/15/8 18/17/8 70/18/8
f 70/18/9 18/17/9 20/19/9 71/20/9
f 71/20/10 20/19/10 22/21/10 72/22/10
f 72/22/11 22/21/11 24/23/11 73/24/11
f 73/24/12 24/23/12 26/25/12 74/26/12
f 74/26/13 26/25/13 28/27/13 75/28/13
f 75/28/14 28/27/14 30/29/14 76/30/14
f 4/31/15 2/32/15 32/33/15 30/34/15 28/35/15 26/36/15 24/37/15 22/38/15 20/39/15 18/40/15 16/41/15 14/42/15 12/43/15 10/44/15 8/45/15 6/46/15
f 76/30/16 30/29/16 32/47/16 77/48/16
f 77/48/17 32/47/17 2/49/17 62/50/17
f 1/51/18 3/52/18 5/53/18 7/54/18 9/55/18 11/56/18 13/57/18 15/58/18 17/59/18 19/60/18 21/61/18 23/62/18 25/63/18 27/64/18 29/65/18 31/66/18
f 116/67/19 44/68/19 45/69/19 117/70/19
f 115/71/20 43/72/20 44/68/20 116/67/20
f 114/73/21 42/74/21 43/72/21 115/71/21
f 113/75/22 41/76/22 42/74/22 114/73/22
f 112/77/23 40/78/23 41/76/23 113/75/23
f 111/79/24 39/80/24 40/78/24 112/77/24
f 110/81/25 38/82/25 39/80/25 111/79/25
f 109/83/26 37/84/26 38/82/26 110/81/26
f 108/85/27 36/86/27 37/84/27 109/83/27
f 107/87/28 35/88/28 36/86/28 108/85/28
f 106/89/29 34/90/29 35/88/29 107/87/29
f 105/91/30 33/92/30 34/90/30 106/89/30
f 44/68/31 59/93/31 60/94/31 45/69/31
f 43/72/32 58/95/32 59/93/32 44/68/32
f 42/74/33 57/96/33 58/95/33 43/72/33
f 41/76/34 56/97/34 57/96/34 42/74/34
f 40/78/35 55/98/35 56/97/35 41/76/35
f 39/80/36 54/99/36 55/98/36 40/78/36
f 38/82/37 53/100/37 54/99/37 39/80/37
f 37/84/38 52/101/38 53/100/38 38/82/38
f 36/86/39 51/102/39 52/101/39 37/84/39
f 35/88/40 50/103/40 51/102/40 36/86/40
f 34/90/41 49/104/41 50/103/41 35/88/41
f 33/92/42 48/105/42 49/104/42 34/90/42
f 101/106/18 102/107/18 103/108/18 99/109/18 100/110/18 79/111/18 78/112/18 93/113/18 92/114/18 91/115/18
f 96/116/15 95/117/15 94/118/15 98/119/15 97/120/15 76/30/15 77/48/15 62/50/15 63/4/15 64/6/15
f 90/121/43 75/28/43 76/30/43 91/115/43
f 89/122/44 74/26/44 75/28/44 90/121/44
f 88/123/45 73/24/45 74/26/45 89/122/45
f 87/124/46 72/22/46 73/24/46 88/123/46
f 86/125/47 71/20/47 72/22/47 87/124/47
f 85/126/48 70/18/48 71/20/48 86/125/48
f 84/127/49 69/16/49 70/18/49 85/126/49
f 83/128/50 68/14/50 69/16/50 84/127/50
f 82/129/51 67/12/51 68/14/51 83/128/51
f 81/130/52 66/10/52 67/12/52 82/129/52
f 80/131/53 65/8/53 66/10/53 81/130/53
f 79/111/54 64/6/54 65/8/54 80/131/54
f 96/116/55 64/6/55 79/111/55 100/110/55
f 101/106/56 91/115/56 76/30/56 97/120/56
f 46/132/57 93/113/57 78/112/57 47/133/57
f 47/133/58 78/112/58 79/111/58 48/105/58
f 48/105/59 79/111/59 80/131/59 49/104/59
f 49/104/60 80/131/60 81/130/60 50/103/60
f 50/103/61 81/130/61 82/129/61 51/102/61
f 51/102/62 82/129/62 83/128/62 52/101/62
f 52/101/63 83/128/63 84/127/63 53/100/63
f 53/100/64 84/127/64 85/126/64 54/99/64
f 54/99/65 85/126/65 86/125/65 55/98/65
f 55/98/66 86/125/66 87/124/66 56/97/66
f 56/97/67 87/124/67 88/123/67 57/96/67
f 57/96/68 88/123/68 89/122/68 58/95/68
f 58/95/69 89/122/69 90/121/69 59/93/69
f 59/93/70 90/121/70 91/115/70 60/94/70
f 60/94/71 91/115/71 92/114/71 61/134/71
f 61/134/72 92/114/72 93/135/72 46/136/72
f 102/107/73 98/119/73 94/137/73 103/108/73
f 101/106/74 97/120/74 98/119/74 102/107/74
f 99/109/75 95/117/75 96/116/75 100/110/75
f 103/138/76 94/118/76 95/117/76 99/109/76
f 1/139/77 119/140/77 104/141/77 3/142/77
f 3/142/78 104/141/78 105/91/78 5/143/78
f 5/143/30 105/91/30 106/89/30 7/144/30
f 7/144/29 106/89/29 107/87/29 9/145/29
f 9/145/28 107/87/28 108/85/28 11/146/28
f 11/146/27 108/85/27 109/83/27 13/147/27
f 13/147/26 109/83/26 110/81/26 15/148/26
f 15/148/25 110/81/25 111/79/25 17/149/25
f 17/149/24 111/79/24 112/77/24 19/150/24
f 19/150/23 112/77/23 113/75/23 21/151/23
f 21/151/22 113/75/22 114/73/22 23/152/22
f 23/152/21 114/73/21 115/71/21 25/153/21
f 25/153/20 115/71/20 116/67/20 27/154/20
f 27/154/19 116/67/19 117/70/19 29/155/19
f 29/155/79 117/70/79 118/156/79 31/157/79
f 31/157/80 118/156/80 119/158/80 1/159/80
f 133/160/80 124/161/80 120/162/80 134/163/80
f 132/164/79 123/165/79 124/161/79 133/160/79
f 130/166/78 121/167/78 122/168/78 131/169/78
f 134/170/77 120/171/77 121/167/77 130/166/77
f 138/172/81 129/173/81 125/174/81 139/175/81
f 137/176/82 128/177/82 129/173/82 138/172/82
f 135/178/83 126/179/83 127/180/83 136/181/83
f 139/182/84 125/183/84 126/179/84 135/178/84
f 45/69/85 60/94/85 128/177/85 137/176/85 142/184/85 147/185/85 152/186/85 123/165/85 132/164/85 117/70/85
f 46/132/15 47/133/15 48/105/15 127/180/15 126/179/15 125/183/15 129/173/15 128/177/15 60/94/15 61/134/15
f 33/92/86 105/91/86 131/169/86 122/168/86 151/187/86 146/188/86 141/189/86 136/181/86 127/180/86 48/105/86
f 104/141/18 119/158/18 118/156/18 117/70/18 132/164/18 133/160/18 134/170/18 130/166/18 131/169/18 105/91/18
f 140/190/83 135/178/83 136/181/83 141/189/83
f 142/184/82 137/176/82 138/172/82 143/191/82
f 148/192/81 143/191/81 144/193/81 149/194/81
f 147/185/82 142/184/82 143/191/82 148/192/82
f 145/195/83 140/190/83 141/189/83 146/188/83
f 149/196/84 144/197/84 140/190/84 145/195/84
f 156/198/87 143/191/87 138/172/87 159/199/87
f 150/200/83 145/195/83 146/188/83 151/187/83
f 152/186/82 147/185/82 148/192/82 153/201/82
f 124/161/81 153/201/81 154/202/81 120/162/81
f 123/165/82 152/186/82 153/201/82 124/161/82
f 121/167/83 150/200/83 151/187/83 122/168/83
f 120/171/84 154/203/84 150/200/84 121/167/84
f 156/198/81 159/199/81 158/204/81 155/205/81
f 160/206/84 157/207/84 155/205/84 158/204/84
f 161/208/84 164/209/84 166/210/84 163/211/84
f 165/212/81 162/213/81 163/211/81 166/210/81
f 135/178/18 160/206/18 158/204/18 159/199/18 138/172/18 139/175/18
f 140/190/88 157/207/88 160/206/88 135/178/88
f 144/197/15 143/191/15 156/198/15 155/205/15 157/207/15 140/190/15
f 145/195/18 161/208/18 163/211/18 162/213/18 148/192/18 149/194/18
f 150/200/88 164/209/88 161/208/88 145/195/88
f 153/201/87 148/192/87 162/213/87 165/212/87
f 154/203/15 153/201/15 165/212/15 166/210/15 164/209/15 150/200/15
